<svg width="20px" height="20px" viewBox="0 0 20 20" version="1.1" xmlns="http://www.w3.org/2000/svg" xmlns:xlink="http://www.w3.org/1999/xlink">
  <path d="M6.73223305,10.9246212 L9.48528137,13.6776695 L10.1923882,14.3847763 L13.1850288,11.3921356 L16.767767,14.9748737 L17.4748737,14.267767 L13.8921356,10.6850288 L19.3847763,5.19238816 L18.6776695,4.48528137 L10.1923882,12.9705627 L1.70710678,4.48528137 L1,5.19238816 L6.02512627,10.2175144 L2,14.2426407 L2.70710678,14.9497475 L6.73223305,10.9246212 Z M2,0 L18,0 C19.1045695,-2.02906125e-16 20,0.8954305 20,2 L20,18 C20,19.1045695 19.1045695,20 18,20 L2,20 C0.8954305,20 1.3527075e-16,19.1045695 0,18 L0,2 C-1.3527075e-16,0.8954305 0.8954305,2.02906125e-16 2,0 Z" id="path-1"></path>
</svg>