<svg width="17" height="18" xmlns="http://www.w3.org/2000/svg" xmlns:xlink="http://www.w3.org/1999/xlink"><defs><path d="M16.5 15h-.79l-.28-.27a6.5 6.5 0 0 0 1.48-5.34c-.47-2.78-2.79-5-5.59-5.34a6.505 6.505 0 0 0-7.27 7.27c.34 2.8 2.56 5.12 5.34 5.59a6.5 6.5 0 0 0 5.34-1.48l.27.28v.79l4.25 4.25c.41.41 1.08.41 1.49 0 .41-.41.41-1.08 0-1.49L16.5 15zm-6 0C8.01 15 6 12.99 6 10.5S8.01 6 10.5 6 15 8.01 15 10.5 12.99 15 10.5 15z" id="a"/></defs><g transform="translate(-4 -4)" fill="none" fill-rule="evenodd"><path d="M0 0h24v24H0z"/><use fill="#FFF" xlink:href="#a"/></g></svg>