<svg width="20px" height="20px" viewBox="0 0 20 20" version="1.1" xmlns="http://www.w3.org/2000/svg" xmlns:xlink="http://www.w3.org/1999/xlink">
  <path d="M1.67906375,0 L18.3208798,0 C19.244836,0 20,0.755227948 20,1.67745685 L20,18.3207377 C20,19.2447721 19.244836,20 18.3208798,20 L1.67906375,20 C0.755107625,20 0,19.2447721 0,18.3207377 L0,1.67745685 C0,0.755227948 0.755107625,0 1.67906375,0 Z M13.3884503,6.72235246 C13.3884503,6.05062498 13.8362119,5.89428727 14.1524714,5.89428727 C14.4651768,5.89428727 16.0873747,5.89428727 16.0873747,5.89428727 L16.0873747,2.9373549 L13.4221297,2.92494266 C10.4638115,2.92494266 9.79033564,5.1319505 9.79033564,6.54282643 L9.79033564,8.1030441 L8.07928489,8.1030441 L8.07928489,11.5521779 L9.80455208,11.5521779 C9.80455208,15.4633289 9.80455208,19.9962047 9.80455208,19.9962047 L13.2551429,19.9962047 C13.2682699,19.9962047 13.2551429,15.4153726 13.2551429,11.5521779 L16.1353834,11.5521779 L16.1300805,8.1030441 L13.3884503,8.1030441 L13.3884503,6.72235246 Z" id="path-1"></path>
</svg>