<svg width="20px" height="15px" viewBox="0 0 20 15" version="1.1" xmlns="http://www.w3.org/2000/svg" xmlns:xlink="http://www.w3.org/1999/xlink">
  <path d="M20,1.74951378 C19.4402857,2.51458169 18.7432314,3.18233667 17.94,3.72292555 C17.94,3.83569193 17.94,3.99544432 17.94,4.21157989 C17.9380594,5.24298773 17.7763642,6.26863784 17.46,7.25627233 C17.1290658,8.28973202 16.6370601,9.27142881 16,10.169404 C15.3506894,11.0947968 14.5625534,11.9272109 13.66,12.6408673 C12.6887935,13.3940523 11.5810899,13.9765917 10.39,14.3605547 C9.07574586,14.7923747 7.69223975,15.0085296 6.3,14.9995642 C4.06895771,15.0183811 1.88018658,14.4274501 0,13.2986712 C0.332122695,13.3320541 0.665990202,13.3477412 1,13.3456572 C2.84281225,13.3660053 4.63804544,12.795933 6.09,11.729339 C5.22680272,11.7246005 4.38839685,11.4575829 3.7,10.9681659 C3.01476482,10.503954 2.50643694,9.84507697 2.25,9.08872611 C2.50483712,9.12532824 2.76220536,9.14417401 3.02,9.14510931 C3.38447848,9.14444562 3.74738828,9.10023756 4.1,9.01354852 C3.17788611,8.85062367 2.34606457,8.38826871 1.75,7.70733788 C1.13694108,7.03583678 0.806192008,6.17692763 0.82,5.29225776 L0.82,5.24527177 C1.38763929,5.54030074 2.02167165,5.70455184 2.67,5.72452891 C2.11300441,5.38643371 1.65286765,4.92499228 1.33,4.38072947 C0.633939694,3.20767826 0.656812311,1.77475473 1.39,0.621849913 C2.41373068,1.79646078 3.68769946,2.75676062 5.13,3.44100958 C6.59224841,4.16076372 8.20179753,4.57734909 9.85,4.66264544 C9.78404857,4.37862589 9.75052558,4.08880551 9.75,3.79810314 C9.73255775,2.78397988 10.167741,1.80931486 10.95,1.11050426 C11.7410428,0.384157422 12.8078897,-0.0154231269 13.9137373,0.000455791744 C15.019585,0.0163347104 16.0729423,0.446359372 16.84,1.19507905 C17.7578003,1.02492041 18.6374081,0.70700312 19.44,0.255359157 C19.1390023,1.13794913 18.4967069,1.88236169 17.64,2.34153731 C18.4535691,2.25533283 19.2489517,2.05580521 20,1.74951378" id="path-1"></path>
</svg>