<svg width="19px" height="19px" viewBox="0 0 19 19" version="1.1" xmlns="http://www.w3.org/2000/svg" xmlns:xlink="http://www.w3.org/1999/xlink">
  <path d="M1.72340584,14.9321329 L0.775693421,18.2017407 L4.15902675,17.3298453 L4.50968035,17.5478192 C8.61528359,20.0750596 13.9639132,19.1173064 16.9374473,15.3224391 C19.9109813,11.5275718 19.5616817,6.10510745 16.1258349,2.72311406 C12.6899882,-0.658879328 7.26268254,-0.922477726 3.51526109,2.11063205 C-0.232160356,5.14374182 -1.1053028,10.5068335 1.48647773,14.5720022 L1.72340584,14.9321329 Z M3.77046466,6.02363615 C3.95829572,5.35324605 4.34891978,4.75737884 4.88876532,4.3177538 C5.06673411,4.17005233 5.29257036,4.09252645 5.52373264,4.09977994 L6.26294832,4.09977994 C6.42596312,4.10863155 6.56606013,4.2184373 6.61360192,4.37461654 L7.67503983,6.89553157 C7.73124795,7.02993619 7.70546049,7.18466094 7.60869996,7.29357079 L6.66098754,8.38344007 C6.59850094,8.4783248 6.59850094,8.60130044 6.66098754,8.69618517 C7.55194994,10.3648323 9.0262911,11.6468681 10.8024908,12.2974924 C10.9162943,12.3349533 11.0413692,12.2970518 11.1152359,12.2027211 L12.0629483,10.9327865 C12.17131,10.7897394 12.3651287,10.7422736 12.5273274,10.819061 L15.0292882,11.9752701 C15.1939197,12.0477139 15.2849794,12.2258742 15.247262,12.4017407 L15.1240594,12.9514139 C14.9930531,13.575816 14.6176598,14.1218426 14.0815758,14.4677538 C13.2849869,14.9719506 12.304703,15.093617 11.4090268,14.7994531 C8.76883961,14.0099151 6.48022303,12.3369498 4.92667381,10.0608911 C3.98579478,8.94020165 3.56546374,7.47248835 3.77046466,6.02363615 Z" id="path-1"></path>
</svg>